<?xml version="1.0" standalone="no"?>
<!DOCTYPE svg PUBLIC "-//W3C//DTD SVG 20010904//EN"
 "http://www.w3.org/TR/2001/REC-SVG-20010904/DTD/svg10.dtd">
<svg version="1.0" xmlns="http://www.w3.org/2000/svg"
 width="400.000000pt" height="400.000000pt" viewBox="0 0 400.000000 400.000000"
 preserveAspectRatio="xMidYMid meet">

<g transform="translate(0.000000,400.000000) scale(0.100000,-0.100000)"
fill="#000000" stroke="none">
<path d="M1875 3994 c-16 -2 -88 -11 -160 -20 -138 -17 -363 -78 -490 -132
-78 -33 -233 -114 -281 -146 -17 -12 -63 -42 -102 -69 -39 -26 -93 -67 -119
-91 -26 -24 -62 -56 -79 -71 -40 -34 -75 -69 -109 -109 -15 -17 -47 -53 -71
-79 -24 -26 -65 -80 -91 -119 -27 -39 -57 -85 -69 -102 -81 -120 -163 -307
-219 -496 -108 -366 -108 -757 0 -1120 24 -80 56 -177 73 -216 41 -98 155
-310 176 -329 6 -5 28 -35 48 -65 31 -47 79 -106 163 -198 81 -90 211 -202
309 -268 32 -21 72 -48 90 -60 100 -67 379 -195 466 -213 30 -6 82 -20 115
-31 231 -73 712 -71 970 5 44 13 96 26 115 30 82 17 464 201 495 238 6 7 30
25 55 41 151 99 367 315 466 466 16 25 34 50 40 55 41 38 222 413 238 495 4
19 18 71 31 115 75 257 78 739 5 970 -11 33 -25 85 -31 115 -21 100 -181 440
-236 504 -11 11 -32 41 -48 66 -53 82 -173 220 -258 296 -97 88 -150 131 -197
162 -30 20 -59 42 -65 48 -19 21 -231 134 -329 176 -122 52 -326 109 -461 129
-125 19 -377 32 -440 23z m498 -1019 c126 -16 193 -44 297 -122 86 -64 132
-121 193 -240 76 -149 75 -368 -3 -527 -85 -172 -211 -280 -400 -341 -78 -26
-102 -28 -277 -33 l-193 -4 0 -314 c0 -172 -4 -324 -9 -337 -14 -36 -62 -50
-106 -31 l-35 14 0 394 0 394 23 15 c19 12 70 16 258 19 272 6 325 16 431 89
78 52 131 114 178 206 34 67 35 70 35 193 0 124 0 126 -37 200 -42 87 -130
185 -198 221 -124 65 -99 62 -537 67 l-403 4 0 -891 0 -891 -21 -21 c-17 -17
-29 -20 -61 -16 -74 10 -68 -72 -68 961 0 512 3 940 6 952 13 49 41 53 441 53
276 1 401 -3 486 -14z m118 -411 c23 -21 25 -71 3 -102 -15 -22 -18 -22 -265
-22 l-249 0 0 -105 0 -105 154 0 c152 0 155 0 186 -26 26 -22 31 -33 28 -62
-2 -28 -10 -40 -33 -53 -26 -15 -55 -16 -237 -12 -146 4 -213 10 -225 19 -16
11 -18 35 -21 196 -2 101 -1 202 3 226 11 72 21 74 353 68 252 -4 285 -6 303
-22z"/>
</g>
</svg>
